<svg xmlns="http://www.w3.org/2000/svg" viewBox="0 0 1200 720" role="img" aria-label="AI Roundtable desktop preview">
  <rect width="1200" height="720" fill="#f6f3ef"/>
  <rect x="28" y="28" width="1144" height="664" rx="8" fill="#fffdfa" stroke="#d9d3ca"/>
  <text x="56" y="78" font-family="Segoe UI, Arial, sans-serif" font-size="44" font-weight="700" fill="#1e2327">AI Roundtable</text>
  <text x="56" y="112" font-family="Segoe UI, Arial, sans-serif" font-size="16" font-weight="700" fill="#087f8c">Send an AI answer to other AIs for review</text>
  <rect x="56" y="148" width="690" height="370" rx="8" fill="#ffffff" stroke="#d9d3ca"/>
  <text x="84" y="192" font-family="Segoe UI, Arial, sans-serif" font-size="22" font-weight="700" fill="#1e2327">Original AI Answer</text>
  <rect x="84" y="220" width="620" height="78" rx="7" fill="#fffdfa" stroke="#d9d3ca"/>
  <text x="104" y="264" font-family="Segoe UI, Arial, sans-serif" font-size="16" fill="#66707a">Source question or URL</text>
  <rect x="84" y="326" width="620" height="140" rx="7" fill="#fffdfa" stroke="#d9d3ca"/>
  <text x="104" y="370" font-family="Segoe UI, Arial, sans-serif" font-size="16" fill="#66707a">Paste the answer another AI gave you...</text>
  <rect x="84" y="484" width="150" height="44" rx="7" fill="#087f8c"/>
  <text x="112" y="512" font-family="Segoe UI, Arial, sans-serif" font-size="16" font-weight="700" fill="#ffffff">Run</text>
  <rect x="248" y="484" width="180" height="44" rx="7" fill="#e8f4f3" stroke="#087f8c"/>
  <text x="276" y="512" font-family="Segoe UI, Arial, sans-serif" font-size="16" font-weight="700" fill="#05626c">Auto debate</text>
  <rect x="774" y="148" width="342" height="370" rx="8" fill="#ffffff" stroke="#d9d3ca"/>
  <text x="802" y="192" font-family="Segoe UI, Arial, sans-serif" font-size="22" font-weight="700" fill="#1e2327">One-click sharing</text>
  <g font-family="Segoe UI, Arial, sans-serif" font-size="16" font-weight="700" fill="#1e2327">
    <rect x="802" y="220" width="130" height="44" rx="7" fill="#fffdfa" stroke="#d9d3ca"/><text x="834" y="248">ChatGPT</text>
    <rect x="950" y="220" width="130" height="44" rx="7" fill="#fffdfa" stroke="#d9d3ca"/><text x="990" y="248">Claude</text>
    <rect x="802" y="278" width="130" height="44" rx="7" fill="#fffdfa" stroke="#d9d3ca"/><text x="842" y="306">Gemini</text>
    <rect x="950" y="278" width="130" height="44" rx="7" fill="#fffdfa" stroke="#d9d3ca"/><text x="976" y="306">Copilot</text>
  </g>
  <rect x="802" y="352" width="278" height="98" rx="8" fill="#e8f4f3" stroke="#d9d3ca"/>
  <text x="824" y="386" font-family="Segoe UI, Arial, sans-serif" font-size="16" font-weight="700" fill="#1e2327">Install on phone</text>
  <text x="824" y="418" font-family="Segoe UI, Arial, sans-serif" font-size="14" fill="#66707a">PWA and mobile share target</text>
  <rect x="56" y="546" width="1060" height="110" rx="8" fill="#ffffff" stroke="#d9d3ca"/>
  <text x="84" y="586" font-family="Segoe UI, Arial, sans-serif" font-size="22" font-weight="700" fill="#1e2327">AI Roundtable Discussion</text>
  <rect x="84" y="606" width="1000" height="32" rx="5" fill="#e8f4f3"/>
  <text x="104" y="628" font-family="Segoe UI, Arial, sans-serif" font-size="15" fill="#05626c">Reviewer -> Skeptic -> Context Builder -> Moderator -> Synthesizer</text>
</svg>

